<svg width="19" height="18" viewBox="0 0 19 18" fill="none" xmlns="http://www.w3.org/2000/svg">
<path d="M7.3252 0.5C9.0491 0.5 10.7024 1.18482 11.9214 2.40381C13.1404 3.62279 13.8252 5.27609 13.8252 7C13.8252 8.61 13.2352 10.09 12.2652 11.23L12.5352 11.5H13.3252L18.3252 16.5L16.8252 18L11.8252 13V12.21L11.5552 11.94C10.3757 12.9468 8.8759 13.4999 7.3252 13.5C5.60129 13.5 3.94799 12.8152 2.729 11.5962C1.51001 10.3772 0.825195 8.72391 0.825195 7C0.825195 5.27609 1.51001 3.62279 2.729 2.40381C3.94799 1.18482 5.60129 0.5 7.3252 0.5ZM7.3252 2.5C4.8252 2.5 2.8252 4.5 2.8252 7C2.8252 9.5 4.8252 11.5 7.3252 11.5C9.8252 11.5 11.8252 9.5 11.8252 7C11.8252 4.5 9.8252 2.5 7.3252 2.5Z" fill="white"/>
</svg>
