<svg width="45" height="45" viewBox="0 0 45 45" fill="none" xmlns="http://www.w3.org/2000/svg">
<path d="M44.4559 15.5075L40.3186 11.3699C39.9848 11.0406 39.5397 10.8483 39.0711 10.8309C38.6026 10.8136 38.1445 10.9724 37.7872 11.2762C37.2357 11.7456 36.5279 11.9908 35.8042 11.963C35.0804 11.9352 34.3935 11.6365 33.8796 11.1261C33.3695 10.6122 33.071 9.92549 33.0432 9.20192C33.0154 8.47835 33.2604 7.77074 33.7296 7.21923C34.0333 6.86196 34.1921 6.40386 34.1748 5.93526C34.1574 5.46666 33.9651 5.02156 33.6358 4.68774L29.4947 0.545489C29.1448 0.196182 28.6705 0 28.1761 0C27.6816 0 27.2074 0.196182 26.8574 0.545489L20.2619 7.14047C19.8547 7.54916 19.5476 8.04656 19.3646 8.59373C19.329 8.69893 19.2696 8.7945 19.1911 8.87304C19.1126 8.95158 19.017 9.01096 18.9118 9.04658C18.3644 9.22951 17.867 9.53698 17.4586 9.94479L0.545461 26.8588C0.196172 27.2088 0 27.6831 0 28.1776C0 28.672 0.196172 29.1463 0.545461 29.4963L4.6875 33.6338C5.0213 33.9632 5.46637 34.1554 5.93495 34.1728C6.40353 34.1902 6.8616 34.0313 7.21885 33.7276C7.76907 33.2543 8.47782 33.0065 9.20307 33.0337C9.92831 33.0609 10.6165 33.3612 11.1297 33.8744C11.6428 34.3877 11.9431 35.0759 11.9704 35.8011C11.9976 36.5264 11.7498 37.2352 11.2765 37.7855C10.9728 38.1427 10.814 38.6008 10.8313 39.0694C10.8487 39.538 11.041 39.9831 11.3703 40.3169L15.5076 44.4545C15.8576 44.8038 16.3318 45 16.8263 45C17.3207 45 17.7949 44.8038 18.1449 44.4545L35.0581 27.5405C35.4656 27.1322 35.7731 26.6351 35.9562 26.0881C35.9917 25.9826 36.0511 25.8867 36.1298 25.808C36.2086 25.7292 36.3045 25.6698 36.41 25.6343C36.9568 25.4514 37.4539 25.1443 37.8622 24.7371L44.4569 18.1412C44.8049 17.7912 45.0002 17.3177 45 16.8241C44.9998 16.3306 44.8042 15.8572 44.4559 15.5075ZM23.0454 12.7275C22.9061 12.8669 22.7407 12.9774 22.5587 13.0528C22.3767 13.1282 22.1816 13.167 21.9846 13.167C21.7876 13.167 21.5925 13.1282 21.4105 13.0528C21.2284 12.9774 21.0631 12.8669 20.9238 12.7275L19.8447 11.6484C19.5702 11.3656 19.418 10.9862 19.421 10.5922C19.4239 10.1981 19.5818 9.82107 19.8605 9.54249C20.1392 9.2639 20.5163 9.10617 20.9103 9.10338C21.3044 9.10058 21.6837 9.25296 21.9663 9.52756L23.0454 10.6058C23.1847 10.7451 23.2953 10.9105 23.3707 11.0925C23.4461 11.2745 23.4849 11.4696 23.4849 11.6667C23.4849 11.8637 23.4461 12.0588 23.3707 12.2408C23.2953 12.4228 23.1847 12.5882 23.0454 12.7275ZM27.1706 16.8529C26.8893 17.134 26.5079 17.292 26.1102 17.292C25.7125 17.292 25.3312 17.134 25.0499 16.8529L24.0186 15.8216C23.8793 15.6823 23.7688 15.5169 23.6934 15.3348C23.618 15.1528 23.5792 14.9577 23.5792 14.7607C23.5792 14.5637 23.618 14.3686 23.6934 14.1866C23.7688 14.0045 23.8793 13.8391 24.0186 13.6998C24.2999 13.4185 24.6815 13.2604 25.0794 13.2604C25.2764 13.2604 25.4715 13.2992 25.6535 13.3746C25.8355 13.45 26.0009 13.5605 26.1402 13.6998L27.1715 14.7312C27.3113 14.8705 27.4223 15.036 27.498 15.2182C27.5737 15.4005 27.6128 15.5959 27.6129 15.7933C27.613 15.9906 27.5741 16.1861 27.4985 16.3684C27.4229 16.5507 27.3121 16.7163 27.1724 16.8557L27.1706 16.8529ZM31.2957 20.9783C31.1564 21.1176 30.9911 21.2282 30.809 21.3036C30.627 21.379 30.4319 21.4178 30.2349 21.4178C30.0379 21.4178 29.8428 21.379 29.6608 21.3036C29.4788 21.2282 29.3134 21.1176 29.1741 20.9783L28.1428 19.947C27.8683 19.6642 27.7161 19.2848 27.7191 18.8908C27.7221 18.4967 27.88 18.1196 28.1586 17.8411C28.4373 17.5625 28.8145 17.4047 29.2085 17.4019C29.6025 17.3992 29.9818 17.5515 30.2644 17.8261L31.2957 18.8575C31.4359 18.9965 31.5473 19.1619 31.6234 19.3441C31.6996 19.5263 31.739 19.7218 31.7394 19.9193C31.7399 20.1167 31.7013 20.3124 31.626 20.4949C31.5506 20.6774 31.44 20.8433 31.3004 20.983L31.2957 20.9783ZM35.4612 25.1543C35.3219 25.2936 35.1565 25.4042 34.9745 25.4796C34.7925 25.555 34.5974 25.5938 34.4004 25.5938C34.2034 25.5938 34.0083 25.555 33.8263 25.4796C33.6442 25.4042 33.4789 25.2936 33.3396 25.1543L32.267 24.0761C32.1248 23.9372 32.0115 23.7714 31.9339 23.5884C31.8563 23.4053 31.8158 23.2087 31.8149 23.0099C31.8139 22.811 31.8525 22.614 31.9284 22.4302C32.0043 22.2465 32.1159 22.0796 32.2568 21.9394C32.3977 21.7991 32.5651 21.6883 32.7493 21.6133C32.9334 21.5383 33.1306 21.5007 33.3294 21.5026C33.5282 21.5045 33.7246 21.546 33.9073 21.6245C34.0899 21.703 34.2552 21.817 34.3934 21.96L35.4668 23.0372C35.6061 23.1766 35.7166 23.342 35.7919 23.5241C35.8672 23.7062 35.9059 23.9013 35.9058 24.0983C35.9058 24.2953 35.8669 24.4904 35.7914 24.6724C35.7159 24.8544 35.6053 25.0198 35.4659 25.159L35.4612 25.1543Z" fill="white"/>
</svg>
